<svg class="img-fluid" id="outputsvg" xmlns="http://www.w3.org/2000/svg" style="transform: none; transform-origin: 50% 50%; cursor: move;" width="272" height="107" viewBox="0 0 2720 1070"><g id="lxOxXntWJyWGwnYzpvkHJO" fill="rgb(255,255,255)" style="transform: none;"><g><path id="p1xShpdhT" d="M236 1041 c-15 -16 -15 -19 2 -35 17 -15 20 -15 32 -1 12 14 15 14 32 -1 17 -16 19 -16 33 2 18 24 18 29 0 44 -12 10 -18 10 -31 -1 -12 -10 -20 -10 -34 -1 -14 9 -21 7 -34 -7z"></path><path id="puBEo2hGQ" d="M403 1037 c-24 -31 -23 -37 14 -56 85 -44 100 -79 62 -153 -17 -33 -18 -42 -7 -49 26 -17 43 -3 62 48 22 63 16 109 -21 153 -34 41 -98 74 -110 57z"></path><path id="p5EW2W0rd" d="M605 1030 c-9 -27 -1 -37 39 -44 18 -4 41 -15 51 -26 18 -20 17 -20 -17 -20 -65 0 -102 -61 -76 -128 18 -48 57 -69 98 -52 31 13 60 63 60 104 0 22 4 26 29 26 28 0 28 -1 24 -45 -5 -39 -2 -47 25 -75 38 -37 74 -39 108 -5 22 22 25 33 22 76 l-3 50 40 -3 40 -3 3 -126 c3 -126 3 -127 27 -132 l25 -4 0 137 0 138 -32 27 c-30 26 -36 27 -98 21 -83 -9 -84 -9 -155 0 -52 6 -64 11 -89 42 -26 31 -79 62 -105 62 -5 0 -12 -9 -16 -20z m115 -158 c0 -27 -29 -62 -51 -62 -11 0 -24 11 -31 26 -11 22 -10 28 7 40 28 21 75 18 75 -4z m200 -6 c6 -8 10 -25 8 -38 -2 -18 -10 -24 -35 -26 -28 -3 -33 0 -39 24 -11 42 39 72 66 40z"></path><path id="paWwOKob4" d="M1940 1035 c-10 -13 -9 -19 5 -35 17 -19 19 -19 37 -3 17 15 17 17 2 35 -21 22 -28 22 -44 3z"></path><path id="po6RmQvYx" d="M2131 1028 c-12 -20 -12 -23 4 -33 52 -30 100 -73 103 -92 2 -12 -4 -35 -12 -51 -14 -28 -14 -31 2 -37 9 -5 56 -9 103 -10 80 -3 86 -2 82 16 -3 10 -2 30 1 44 6 24 11 26 49 23 l42 -3 3 -126 c2 -115 4 -127 22 -132 10 -3 21 -3 24 0 3 3 2 58 -1 122 -7 133 -1 145 64 139 l38 -3 3 -127 c1 -71 7 -128 11 -128 5 0 16 -3 25 -6 14 -5 16 10 16 131 l0 137 -29 29 c-33 32 -92 40 -126 15 -15 -11 -22 -11 -44 0 -57 30 -126 11 -139 -38 -7 -30 -12 -33 -50 -36 l-42 -3 0 36 c0 52 -25 92 -78 126 -25 16 -48 29 -52 29 -3 0 -11 -10 -19 -22z"></path><path id="pkdGVxe6d" d="M165 928 c-20 -16 -43 -23 -72 -23 -53 -1 -83 -26 -83 -70 0 -43 31 -80 85 -101 25 -9 45 -22 45 -29 0 -13 21 -25 42 -25 8 0 9 28 5 86 -7 104 0 124 48 124 67 0 80 -24 51 -94 -13 -32 -13 -34 9 -44 21 -10 25 -7 37 21 7 18 13 53 13 79 0 65 -26 90 -97 96 -44 3 -58 0 -83 -20z m-25 -113 c0 -30 -3 -35 -23 -35 -28 0 -67 26 -67 45 0 17 16 23 58 24 30 1 32 -1 32 -34z"></path><path id="pSi4DuCyC" d="M1160 790 c0 -90 4 -160 9 -160 5 0 16 -3 25 -6 14 -5 16 13 16 160 l0 166 -25 0 -25 0 0 -160z"></path><path id="poQRvF3K1" d="M1504 928 c-19 -16 -42 -23 -71 -23 -53 -1 -83 -26 -83 -70 0 -43 31 -80 85 -101 25 -9 45 -22 45 -29 0 -12 21 -25 41 -25 5 0 6 34 3 83 -8 99 2 127 45 127 24 0 35 -10 69 -64 45 -72 77 -88 119 -61 26 18 53 71 53 106 0 20 4 21 53 17 28 -3 75 -16 102 -28 l50 -23 -30 -14 c-16 -7 -50 -12 -75 -10 -53 2 -60 -15 -18 -46 29 -22 41 -20 156 20 44 15 52 21 50 41 -2 17 -25 33 -108 73 -91 43 -111 49 -150 45 -57 -7 -57 -7 -108 0 -30 4 -49 2 -67 -10 -23 -15 -28 -15 -47 -1 -32 22 -81 19 -114 -7z m254 -61 c7 -59 -49 -76 -78 -24 -14 26 -14 29 5 43 11 8 31 14 45 12 19 -2 26 -10 28 -31z m-280 -54 c3 -29 0 -33 -21 -33 -34 0 -72 32 -64 54 5 13 16 16 44 14 35 -3 38 -6 41 -35z"></path><path id="p18nAlJbpQ" d="M2340 745 c-10 -13 -9 -19 5 -35 17 -19 19 -19 36 -4 16 14 21 15 34 4 13 -11 19 -10 33 3 15 16 15 18 0 33 -13 13 -19 14 -36 3 -17 -11 -24 -11 -34 -1 -16 16 -23 15 -38 -3z"></path><path id="pWP0O12Bu" d="M870 684 c-11 -13 -10 -19 7 -36 l21 -20 12 21 c9 17 9 26 -1 37 -15 18 -23 18 -39 -2z"></path><path id="pG48mMWsQ" d="M55 640 c-14 -16 -15 -22 -5 -35 15 -18 37 -20 43 -2 3 9 9 9 27 -1 19 -12 25 -11 38 2 15 15 15 17 0 33 -14 13 -20 14 -33 3 -13 -11 -18 -10 -34 4 -17 15 -19 15 -36 -4z"></path><path id="p16bZl3ZKP" d="M1395 640 c-17 -19 -17 -22 -2 -37 14 -14 18 -14 32 -3 14 11 20 11 37 1 17 -11 23 -10 36 3 15 15 15 17 0 33 -14 13 -20 14 -33 3 -13 -11 -18 -10 -34 4 -17 15 -19 15 -36 -4z"></path><path id="p22ikgHtf" d="M1400 435 c-10 -13 -9 -19 5 -35 17 -19 19 -19 37 -3 17 15 17 17 2 35 -21 22 -28 22 -44 3z"></path><path id="p35CBFp11" d="M1667 422 c-16 -18 -16 -20 1 -36 17 -15 20 -15 32 -1 12 14 15 14 30 0 15 -14 19 -13 35 5 17 19 18 22 2 37 -15 16 -18 15 -35 0 -16 -15 -20 -15 -33 -1 -14 13 -17 13 -32 -4z"></path><path id="pyUJlDg8d" d="M1822 405 c-10 -23 -9 -26 21 -41 46 -23 87 -65 87 -88 0 -11 -10 -40 -21 -64 -18 -37 -19 -46 -8 -53 25 -16 36 -10 55 33 39 88 14 163 -70 213 -24 14 -45 25 -48 25 -3 0 -10 -11 -16 -25z"></path><path id="pdS9u60xp" d="M970 345 c-14 -8 -52 -15 -85 -15 -33 0 -71 -7 -84 -14 -21 -11 -30 -11 -57 0 -43 18 -115 18 -139 0 -17 -12 -24 -12 -49 1 -23 12 -45 14 -90 8 -34 -4 -72 -6 -86 -4 -14 1 -66 3 -117 3 -115 1 -146 -16 -151 -84 -3 -40 13 -100 27 -100 22 1 31 18 22 42 -23 60 10 88 103 88 l53 0 -4 -47 c-4 -41 -1 -52 21 -75 61 -66 151 -3 132 92 -5 29 -4 30 33 30 43 0 56 -11 66 -57 4 -23 12 -33 25 -33 15 0 19 9 22 43 l3 42 54 3 c30 2 58 -1 63 -6 6 -6 -2 -33 -22 -72 -19 -38 -29 -71 -26 -84 3 -14 32 -34 91 -63 47 -24 85 -39 85 -34 0 5 3 16 6 25 4 11 -12 23 -62 46 -37 17 -70 32 -72 34 -5 6 37 86 65 124 22 29 29 32 76 32 l52 0 -3 -130 c-2 -80 1 -130 7 -130 5 0 16 -3 25 -6 14 -5 16 10 16 130 l0 136 29 18 c28 17 28 19 15 45 -8 15 -16 27 -17 27 -1 -1 -13 -7 -27 -15z m-550 -99 c6 -8 10 -25 8 -38 -2 -19 -9 -23 -38 -23 -30 0 -36 4 -38 24 -6 40 43 66 68 37z"></path><path id="pOnjOAmjD" d="M1060 171 c0 -150 1 -159 20 -164 19 -5 20 0 20 159 0 157 -1 164 -20 164 -19 0 -20 -7 -20 -159z"></path><path id="pIhQ6NBs0" d="M1303 315 c-36 -16 -53 -42 -53 -83 0 -33 18 -92 28 -92 22 1 31 18 24 46 -19 68 7 84 134 84 93 0 124 -16 124 -65 0 -18 5 -25 20 -25 17 0 20 7 20 39 0 43 10 51 65 51 68 0 77 -15 51 -88 -14 -38 -13 -40 9 -50 22 -10 25 -8 33 21 28 92 23 131 -22 158 -38 23 -104 25 -134 3 -21 -14 -26 -14 -56 0 -43 20 -197 21 -243 1z"></path><path id="pMajOJuC9" d="M2017 308 c-4 -13 -7 -26 -7 -29 0 -3 27 -6 60 -6 33 0 63 -2 66 -6 4 -3 -5 -34 -19 -69 l-25 -63 21 -12 c26 -14 29 -12 52 52 28 79 41 95 78 95 44 0 54 -9 62 -53 5 -27 12 -37 26 -37 15 0 19 7 19 40 0 33 4 41 24 46 13 3 37 4 52 2 l29 -3 3 -127 c1 -71 7 -128 11 -128 5 0 17 -3 26 -7 16 -6 17 5 10 138 -6 117 -10 147 -24 162 -25 26 -91 33 -127 14 -26 -13 -32 -13 -58 0 -19 10 -42 13 -70 9 -22 -3 -45 -5 -51 -5 -5 0 -42 3 -81 5 -68 5 -72 5 -77 -18z"></path><path id="pO7cRUPK0" d="M2570 171 c0 -150 1 -159 20 -164 19 -5 20 0 20 159 0 157 -1 164 -20 164 -19 0 -20 -7 -20 -159z"></path><path id="pelszn2MG" d="M608 133 c-14 -14 -20 -14 -33 -3 -13 11 -19 11 -33 -3 -15 -16 -15 -18 0 -34 14 -13 20 -14 32 -4 11 10 19 9 35 -1 18 -11 23 -10 38 5 16 16 16 18 -3 37 -18 19 -21 19 -36 3z"></path><path id="p121Obdf2X" d="M2280 124 c-11 -12 -11 -18 2 -30 13 -13 19 -14 38 -2 18 10 24 10 27 1 6 -18 28 -16 43 3 11 12 10 18 -4 32 -14 14 -19 15 -37 3 -15 -9 -24 -10 -32 -2 -15 15 -22 14 -37 -5z"></path><path id="pgqfFRZEt" d="M370 64 c-11 -12 -10 -18 3 -32 16 -15 18 -15 34 0 13 14 14 20 3 32 -7 9 -16 16 -20 16 -4 0 -13 -7 -20 -16z"></path><path id="pWAqEhood" d="M570 55 c-10 -13 -9 -19 5 -35 17 -19 19 -19 37 -3 17 15 17 17 2 35 -21 22 -28 22 -44 3z"></path></g></g></svg>