<svg class="img-fluid" id="outputsvg" xmlns="http://www.w3.org/2000/svg" style="transform: none; transform-origin: 50% 50%; cursor: move; max-height: none;" width="2025" height="2025" viewBox="0 0 20250 20250"><g id="l18sYZ00hfRNnEtmgCKMqHn" fill="rgb(255,255,255)" style="transform: none;"><g style="transform: none;"><path id="pGf63HmkC" d="M3864 13257 c-15 -17 -51 -54 -81 -80 l-55 -48 -46 41 c-26 22 -63 56 -83 76 -35 36 -37 36 -73 23 -36 -13 -152 -123 -174 -165 -10 -18 -7 -28 17 -60 55 -75 135 -144 173 -150 32 -6 37 -3 57 30 13 20 26 36 31 36 4 0 27 16 50 35 23 19 45 35 49 35 5 0 20 -11 35 -25 16 -14 39 -33 52 -42 14 -9 31 -28 39 -44 18 -34 47 -44 77 -28 38 20 141 120 165 159 l23 37 -29 39 c-45 61 -123 132 -163 148 -36 16 -37 16 -64 -17z"></path><path id="p157bvoYcm" d="M4418 13155 c-29 -31 -60 -73 -68 -94 -8 -21 -20 -45 -27 -53 -7 -8 -15 -33 -19 -55 -6 -38 -4 -42 22 -56 16 -8 45 -18 64 -22 19 -3 60 -22 92 -41 31 -19 60 -34 66 -34 5 0 27 -16 48 -35 22 -19 59 -42 84 -52 67 -25 209 -148 267 -232 72 -101 75 -110 70 -188 -3 -50 -11 -85 -29 -120 -14 -26 -35 -79 -48 -118 -12 -38 -30 -79 -40 -90 -10 -11 -25 -38 -34 -60 -10 -22 -26 -56 -36 -75 -40 -74 -70 -141 -70 -159 0 -12 15 -29 38 -42 20 -13 39 -27 40 -31 2 -5 35 -24 72 -43 l68 -34 42 30 c30 22 50 49 73 97 17 37 37 73 44 80 21 22 41 65 49 107 3 22 18 62 32 90 40 80 53 164 55 345 2 172 -11 249 -49 291 -8 9 -23 43 -32 73 -24 81 -163 250 -262 318 -25 18 -63 47 -84 65 -22 18 -44 33 -49 33 -6 0 -25 12 -44 26 -18 14 -66 41 -106 60 -39 19 -83 41 -97 48 -62 33 -76 30 -132 -29z"></path><path id="p02I0Hz06" d="M5682 13195 c-45 -32 -76 -108 -97 -237 -10 -61 1 -66 185 -84 36 -3 94 -19 130 -34 36 -15 84 -34 107 -40 23 -7 71 -37 108 -68 56 -47 65 -60 65 -88 0 -40 -22 -64 -58 -64 -33 0 -250 -36 -277 -46 -33 -12 -104 -65 -171 -129 -55 -53 -64 -67 -79 -125 -9 -35 -23 -76 -31 -92 -10 -18 -14 -62 -14 -140 0 -101 3 -122 35 -221 29 -87 47 -123 91 -181 49 -66 137 -141 203 -176 40 -21 255 -19 319 3 28 10 52 23 52 27 0 5 23 24 50 42 28 18 50 36 50 41 0 4 15 22 34 40 19 18 44 57 56 87 12 30 28 62 35 70 19 22 33 80 55 241 35 262 28 253 205 257 76 2 149 1 162 -3 24 -6 25 -9 20 -55 -4 -29 -17 -66 -34 -91 -28 -42 -28 -43 -28 -208 l0 -166 32 -50 c17 -28 41 -70 52 -95 24 -55 103 -139 155 -165 22 -11 55 -29 75 -40 31 -17 55 -20 176 -20 l141 0 74 45 c105 63 176 136 199 203 10 29 26 68 35 85 40 77 48 124 44 238 -4 94 -8 119 -30 165 -35 73 -48 122 -36 142 8 15 31 17 175 17 l167 0 70 -36 c39 -20 81 -46 94 -58 38 -37 47 -112 34 -277 -17 -202 -22 -1156 -7 -1169 6 -5 40 -17 76 -26 35 -8 83 -22 107 -30 62 -20 71 -18 89 24 14 33 15 116 10 784 l-5 747 -50 100 c-51 104 -117 179 -172 196 -14 4 -61 23 -105 44 l-80 36 -260 -1 -260 -1 -90 -31 c-49 -17 -128 -36 -174 -42 -94 -13 -123 -8 -281 42 -92 30 -103 31 -315 35 -121 2 -230 6 -243 9 -38 8 -98 70 -117 121 -10 27 -28 62 -40 78 -40 54 -169 180 -215 210 -25 16 -56 39 -70 51 -14 12 -56 31 -95 44 -38 12 -81 30 -96 41 -52 37 -197 51 -237 24z m582 -928 c22 -16 37 -81 30 -127 -12 -75 -34 -179 -43 -202 -5 -12 -19 -32 -32 -44 -13 -12 -32 -35 -41 -52 -21 -40 -78 -56 -173 -50 -96 6 -122 21 -161 93 -18 33 -39 67 -46 75 -7 8 -13 38 -13 70 1 44 6 61 23 80 12 13 22 27 22 31 0 24 56 69 103 83 29 9 66 25 82 36 25 17 46 20 131 20 65 0 106 -4 118 -13z m1182 -106 c99 -65 134 -108 143 -177 5 -32 5 -80 1 -107 -6 -41 -15 -54 -66 -101 -68 -63 -98 -71 -222 -64 l-77 5 -59 56 c-50 49 -60 64 -67 105 -9 56 -1 137 17 172 7 14 30 41 51 61 109 103 178 116 279 50z"></path><path id="piUKLtmoz" d="M14828 13185 c-13 -15 -33 -37 -45 -50 -12 -12 -32 -44 -43 -71 -12 -27 -26 -51 -31 -55 -13 -7 -29 -77 -23 -94 3 -6 39 -22 80 -35 41 -12 85 -30 97 -40 12 -9 41 -27 63 -38 23 -12 55 -32 71 -46 16 -14 49 -32 74 -42 24 -9 60 -32 79 -50 19 -18 57 -52 84 -76 27 -24 55 -50 62 -58 8 -8 35 -39 61 -68 l47 -53 -1 -93 c0 -83 -3 -100 -30 -152 -17 -32 -38 -84 -48 -114 -10 -30 -27 -72 -37 -94 -17 -34 -18 -44 -8 -81 13 -46 43 -66 120 -80 19 -4 55 -18 79 -32 41 -24 50 -25 140 -20 53 3 139 11 191 17 106 14 364 7 420 -10 19 -6 73 -13 120 -16 114 -9 115 -7 94 122 -28 177 -28 213 -5 274 17 45 33 64 83 104 l62 48 126 -4 c116 -4 130 -6 192 -36 37 -18 73 -43 80 -55 10 -17 12 -175 10 -734 -3 -686 -2 -712 16 -722 29 -16 184 -39 225 -34 72 10 69 -31 65 750 -3 794 -10 730 84 780 28 16 60 34 72 41 15 9 58 12 161 9 119 -4 146 -7 180 -26 21 -11 45 -21 51 -21 7 0 27 -15 45 -32 l32 -33 -6 -706 c-6 -663 -6 -707 11 -721 17 -16 157 -47 245 -55 l47 -5 0 796 c0 793 0 796 -20 796 -11 0 -23 8 -27 18 -38 112 -142 237 -219 262 -21 7 -64 24 -94 39 -51 24 -67 26 -213 29 -182 4 -275 -8 -321 -42 -17 -13 -41 -27 -53 -30 -12 -4 -36 -20 -53 -36 -39 -36 -73 -33 -145 16 -28 19 -56 34 -63 34 -7 0 -36 12 -65 27 -49 26 -61 28 -210 31 -175 4 -283 -9 -321 -39 -14 -11 -44 -26 -67 -34 -50 -18 -97 -66 -124 -124 -10 -23 -22 -41 -26 -41 -18 0 -36 -58 -42 -132 -7 -79 -22 -128 -41 -128 -122 0 -369 -12 -393 -19 -30 -9 -32 -8 -51 31 -15 34 -17 49 -10 87 11 53 4 150 -18 273 -12 67 -23 97 -45 124 -16 20 -29 43 -29 50 0 39 -241 290 -347 361 -46 30 -85 59 -88 63 -3 5 -31 18 -63 30 -31 12 -77 34 -102 50 -25 16 -62 32 -82 35 -33 6 -40 4 -60 -20z"></path><path id="paft81wub" d="M13733 13193 c-29 -6 -146 -123 -163 -163 -12 -29 -11 -36 6 -68 32 -60 123 -140 167 -148 37 -6 42 -4 78 37 21 24 54 67 73 94 34 48 35 53 24 89 -13 42 -126 167 -149 165 -8 -1 -24 -4 -36 -6z"></path><path id="pmpegD7xJ" d="M12250 12634 c-14 -2 -62 -9 -107 -15 -64 -9 -93 -18 -134 -45 -30 -19 -56 -34 -60 -34 -4 0 -17 -15 -28 -34 -21 -33 -86 -66 -130 -66 -8 0 -38 22 -66 49 -27 27 -81 66 -120 87 l-70 39 -138 3 c-161 5 -252 -9 -303 -43 -20 -14 -43 -25 -51 -25 -24 0 -125 -103 -145 -147 -30 -68 -90 -90 -160 -59 -80 35 -336 29 -378 -9 -8 -7 -42 -25 -75 -40 -47 -21 -73 -42 -123 -100 -35 -41 -67 -87 -71 -103 -5 -15 -12 -78 -15 -138 -8 -137 12 -225 67 -298 21 -26 37 -53 37 -60 0 -15 94 -99 159 -142 24 -16 55 -37 70 -46 14 -10 49 -25 76 -34 28 -9 62 -25 78 -35 15 -11 69 -29 120 -40 50 -11 102 -26 113 -34 23 -15 44 -81 44 -138 0 -61 23 -76 126 -83 106 -8 161 5 170 40 3 12 3 83 0 157 -3 73 -9 290 -12 480 -5 332 -4 350 16 410 20 63 52 109 76 109 7 0 20 8 30 18 15 14 36 17 129 17 93 0 114 -3 129 -17 10 -10 21 -18 26 -18 4 0 32 -18 60 -41 37 -29 59 -57 76 -95 13 -30 31 -57 39 -60 8 -3 27 -31 41 -62 15 -32 35 -66 44 -77 10 -11 25 -41 35 -68 10 -26 28 -59 42 -73 13 -14 34 -47 48 -73 13 -26 35 -55 49 -64 13 -9 27 -24 30 -34 3 -10 23 -29 43 -42 21 -14 49 -34 63 -46 41 -35 106 -50 220 -50 89 1 111 4 145 23 91 49 150 99 182 153 18 30 41 63 51 74 47 48 133 359 119 431 -6 32 26 90 54 99 10 4 26 14 36 23 24 25 291 25 343 0 19 -9 85 -26 145 -38 64 -13 128 -32 152 -46 24 -14 71 -34 105 -45 34 -11 71 -28 83 -38 11 -11 61 -34 110 -51 75 -26 95 -38 123 -72 17 -22 32 -44 32 -48 0 -8 -35 -22 -125 -50 -22 -7 -64 -24 -94 -37 -82 -39 -227 -58 -329 -43 -70 10 -89 17 -123 46 -40 33 -41 34 -77 18 -39 -16 -87 -56 -103 -87 -21 -37 10 -98 85 -170 144 -136 149 -139 331 -141 139 -1 199 10 270 50 22 12 65 27 96 33 55 12 120 41 145 66 7 7 37 18 66 25 29 7 78 25 108 41 44 23 77 30 164 38 60 6 115 16 123 22 11 9 13 42 11 153 l-3 141 -70 36 c-38 19 -99 45 -135 58 -36 13 -84 33 -107 46 -23 13 -65 31 -92 40 -28 9 -59 28 -70 41 -11 13 -45 33 -77 44 -32 11 -65 26 -73 34 -9 8 -38 25 -66 39 -27 14 -68 37 -90 52 -22 15 -65 36 -95 47 -30 10 -71 29 -90 41 -42 28 -240 92 -332 107 -39 7 -131 10 -220 8 l-153 -4 -77 -38 c-70 -34 -82 -37 -128 -31 -29 4 -62 16 -78 29 -38 32 -76 45 -162 56 -74 9 -132 11 -180 4z m165 -333 c30 -5 54 -16 62 -27 7 -11 30 -41 50 -69 32 -44 37 -57 37 -110 0 -53 -5 -70 -48 -145 -72 -128 -138 -168 -261 -157 -58 5 -61 7 -120 70 -112 120 -145 178 -145 254 0 41 5 57 22 73 12 11 25 20 30 20 4 0 26 16 47 35 60 55 194 77 326 56z m-1646 -274 c37 -10 46 -18 57 -47 16 -44 18 -286 3 -345 -17 -68 -29 -73 -107 -47 -37 11 -98 29 -137 38 -80 18 -94 25 -150 68 -86 67 -110 106 -106 175 3 57 14 77 54 97 18 9 41 27 52 40 11 13 34 25 50 27 65 9 242 5 284 -6z"></path><path id="ppv2zmYSI" d="M3180 12611 c-19 -4 -72 -25 -118 -46 -88 -40 -133 -85 -199 -197 -15 -26 -34 -50 -41 -53 -7 -3 -41 8 -75 23 -58 25 -71 27 -202 27 -133 0 -142 -2 -185 -26 -25 -15 -56 -30 -70 -34 -52 -15 -89 -38 -96 -57 -3 -11 -20 -28 -37 -38 -24 -15 -39 -37 -58 -87 -20 -51 -31 -69 -48 -71 -20 -3 -21 -8 -21 -133 0 -122 1 -129 20 -129 21 0 41 -31 61 -98 7 -24 22 -51 33 -60 12 -9 30 -31 41 -48 23 -35 103 -107 143 -128 15 -8 35 -23 46 -35 10 -11 43 -27 73 -36 30 -9 83 -31 118 -49 34 -19 87 -37 116 -41 81 -11 104 -26 123 -84 9 -27 16 -59 16 -70 0 -34 21 -69 49 -80 14 -5 64 -15 110 -20 81 -11 86 -10 108 11 l23 21 0 507 c0 279 3 528 6 554 6 43 12 51 68 94 l61 47 166 0 c106 0 175 -4 190 -12 13 -6 51 -22 84 -34 80 -31 105 -52 128 -105 19 -42 19 -47 4 -97 -9 -28 -26 -92 -37 -141 -12 -48 -34 -111 -50 -140 -19 -34 -35 -83 -45 -146 l-17 -94 28 -23 c15 -12 39 -25 53 -28 14 -3 43 -17 63 -30 78 -51 120 -40 133 36 4 21 18 55 32 76 17 26 30 68 43 144 10 59 24 117 30 129 21 39 40 171 40 273 0 107 -11 167 -35 191 -8 8 -24 38 -35 68 -13 36 -40 75 -83 120 -53 56 -73 69 -120 83 -32 9 -85 28 -120 43 -59 24 -71 26 -272 28 -115 2 -226 -1 -245 -5z m-420 -591 c26 -13 45 -36 68 -79 17 -32 16 -260 -1 -293 -33 -64 -77 -83 -131 -57 -21 10 -75 26 -118 36 -51 11 -92 26 -113 42 -18 14 -46 33 -62 42 -56 30 -107 150 -87 203 7 19 104 92 147 112 41 19 259 14 297 -6z"></path><path id="pm5p7QjmK" d="M8999 12605 c-25 -13 -26 -18 -37 -167 -6 -84 -14 -496 -18 -918 -5 -734 -5 -766 13 -782 16 -15 133 -43 225 -55 71 -9 69 -45 62 930 -4 474 -9 889 -13 922 -6 58 -7 60 -41 72 -48 16 -159 15 -191 -2z"></path><path id="pFXfnvQuZ" d="M16488 11451 c-20 -14 -57 -43 -82 -65 l-46 -39 -48 18 c-26 10 -63 35 -83 57 -31 32 -42 38 -78 38 -39 0 -48 -6 -102 -60 -39 -39 -65 -75 -75 -104 -15 -44 -15 -46 11 -80 15 -19 50 -55 78 -79 l52 -44 50 12 c35 9 58 23 80 48 20 24 45 39 74 47 44 11 44 11 85 -29 45 -44 118 -111 121 -111 4 0 91 82 146 137 53 53 56 59 47 85 -13 36 -98 130 -152 167 l-41 29 -37 -27z"></path><path id="pi0GcOuGl" d="M7283 11109 c-10 -11 -37 -39 -59 -62 -23 -23 -49 -61 -58 -84 l-16 -43 51 -57 c83 -94 95 -103 142 -103 48 1 66 14 145 103 l52 57 -17 43 c-9 23 -44 69 -78 105 -57 56 -66 62 -104 62 -29 0 -46 -6 -58 -21z"></path><path id="p18KG90zVo" d="M2786 10838 c-9 -12 -43 -46 -77 -75 l-61 -53 -50 27 c-28 15 -65 44 -83 65 -27 32 -38 38 -72 38 -36 0 -46 -6 -116 -79 -42 -43 -77 -83 -77 -89 0 -30 38 -92 90 -143 56 -57 60 -59 109 -59 43 0 53 4 67 26 10 14 44 43 76 65 l59 39 65 -63 c79 -75 88 -81 121 -72 30 7 160 135 173 171 17 43 29 27 -150 200 -31 30 -54 31 -74 2z"></path><path id="p8Svyf1d5" d="M10417 10828 c-79 -72 -157 -150 -157 -159 0 -37 95 -152 157 -190 46 -29 70 -20 146 51 l64 60 44 -17 c25 -10 61 -36 83 -60 35 -38 44 -43 83 -43 40 0 49 5 99 56 30 30 64 75 74 98 17 41 17 45 1 70 -10 14 -46 53 -80 86 -54 51 -69 60 -100 60 -31 0 -45 -8 -86 -50 -30 -30 -65 -55 -88 -62 -37 -11 -40 -10 -75 25 -53 54 -114 107 -122 107 -4 0 -23 -15 -43 -32z"></path><path id="pYAKzTngW" d="M10495 9579 c-30 -7 -58 -28 -111 -80 l-71 -71 13 -44 c9 -31 31 -63 73 -104 57 -57 62 -60 109 -60 43 0 52 4 68 28 9 15 36 45 59 67 22 22 45 56 51 75 10 34 9 36 -64 118 -41 45 -77 82 -81 81 -3 -1 -24 -5 -46 -10z"></path><path id="p1Hn0qHgbQ" d="M12370 9470 c-59 -59 -84 -78 -97 -73 -29 10 -111 72 -135 103 -16 19 -36 30 -63 34 -40 7 -41 6 -97 -59 -32 -36 -63 -84 -69 -106 -12 -38 -11 -41 25 -92 20 -28 52 -69 71 -90 31 -36 37 -38 73 -32 24 4 49 17 63 32 46 49 121 103 145 103 15 0 30 -10 41 -27 22 -35 114 -123 129 -123 26 0 152 110 191 167 22 33 10 61 -54 126 -136 137 -125 135 -223 37z"></path><path id="ptJQ3euKY" d="M12979 9440 c-26 -14 -42 -33 -58 -70 -12 -28 -30 -59 -41 -70 -28 -28 -40 -55 -40 -93 0 -40 9 -49 73 -70 26 -9 61 -27 77 -41 16 -13 58 -34 94 -46 35 -11 71 -29 81 -40 9 -10 36 -28 60 -39 24 -11 59 -34 77 -49 18 -16 48 -37 66 -46 17 -9 32 -21 32 -25 0 -5 14 -22 31 -38 35 -32 113 -146 129 -188 6 -16 8 -48 4 -74 -6 -47 -49 -168 -65 -186 -5 -5 -9 -17 -9 -26 0 -10 -15 -46 -33 -81 -19 -35 -40 -80 -46 -101 -7 -21 -25 -52 -39 -69 -27 -31 -74 -156 -65 -171 3 -4 22 -19 43 -32 21 -13 50 -35 65 -49 15 -14 35 -26 44 -26 10 0 21 -4 26 -9 28 -25 54 -22 82 10 15 18 40 46 55 62 15 16 32 45 39 64 6 20 24 56 40 82 16 25 34 73 40 106 6 33 25 89 42 125 31 63 32 69 35 232 5 207 -1 266 -35 315 -14 21 -32 61 -39 88 -8 28 -24 59 -38 71 -13 12 -32 36 -41 55 -22 41 -184 204 -213 213 -11 4 -27 18 -36 31 -9 13 -42 37 -73 52 -32 16 -111 57 -176 91 -65 34 -126 62 -135 62 -9 -1 -33 -9 -53 -20z"></path><path id="pUwjkRDKO" d="M7924 9035 c-23 -7 -57 -24 -75 -37 -19 -14 -52 -31 -74 -38 -22 -7 -57 -23 -78 -37 -57 -36 -123 -43 -413 -43 -271 0 -360 -9 -405 -40 -14 -11 -52 -29 -85 -41 -32 -12 -74 -33 -92 -47 -44 -34 -80 -32 -138 7 -27 17 -60 34 -74 37 -14 3 -61 18 -105 34 -131 47 -152 50 -351 50 -205 0 -297 -11 -329 -40 -11 -10 -38 -25 -60 -35 -22 -9 -49 -25 -60 -35 -16 -15 -93 -50 -111 -50 -2 0 -18 13 -37 30 -19 16 -67 41 -108 56 -41 14 -81 32 -89 39 -30 26 -99 35 -275 35 -204 0 -334 -12 -367 -34 -30 -20 -195 -56 -255 -56 -77 0 -171 21 -209 46 -45 31 -86 39 -263 55 -151 13 -448 8 -635 -11 -75 -7 -109 -16 -141 -34 -23 -14 -71 -32 -107 -41 -42 -11 -86 -31 -120 -55 -74 -54 -168 -150 -174 -180 -3 -14 -15 -50 -26 -80 -36 -92 -35 -217 1 -378 16 -72 38 -149 49 -170 11 -20 36 -69 55 -108 l35 -72 44 8 c46 9 143 53 153 71 4 5 -6 33 -21 62 -29 56 -54 189 -54 292 0 73 22 165 43 176 8 5 36 29 61 54 26 25 53 45 60 45 7 0 39 9 72 21 133 46 162 49 439 55 303 6 321 3 319 -52 -1 -17 -14 -49 -28 -71 -15 -22 -31 -66 -36 -99 -21 -125 -7 -325 26 -383 45 -78 65 -105 117 -160 31 -34 63 -61 71 -61 8 0 33 -15 55 -34 28 -24 60 -38 99 -47 95 -20 302 2 302 31 0 4 29 26 65 49 36 23 65 46 65 51 0 5 16 26 36 47 53 55 59 67 99 188 35 105 37 115 33 220 -3 98 -6 114 -27 142 -18 24 -26 50 -29 92 -6 82 -1 84 202 79 159 -5 162 -5 231 -39 128 -62 137 -76 164 -264 13 -85 26 -144 36 -155 8 -9 15 -21 15 -27 0 -6 10 -23 22 -38 19 -24 26 -27 65 -21 52 7 138 49 147 71 11 29 6 87 -14 183 -18 87 -19 95 -3 135 15 38 77 107 96 107 4 0 29 10 55 23 44 21 59 22 237 21 178 -1 196 -3 280 -29 88 -27 135 -56 135 -81 0 -25 -32 -109 -49 -129 -10 -11 -28 -42 -41 -68 -12 -27 -33 -61 -46 -77 -13 -15 -31 -47 -39 -70 -8 -23 -28 -58 -44 -79 -16 -20 -34 -55 -40 -77 -6 -23 -19 -52 -30 -65 -56 -72 -71 -163 -52 -312 14 -118 25 -137 86 -160 28 -10 61 -29 75 -43 14 -13 48 -31 75 -41 27 -9 61 -27 75 -40 14 -13 47 -30 74 -38 26 -8 72 -30 101 -50 30 -19 59 -35 67 -35 7 0 45 -16 83 -35 39 -20 92 -42 118 -50 27 -8 64 -28 82 -44 54 -47 187 -68 218 -33 20 22 43 193 29 219 -23 42 -88 82 -177 108 -33 9 -80 27 -105 40 -25 12 -63 28 -85 35 -22 7 -65 27 -95 45 -30 18 -79 38 -108 45 -29 7 -67 22 -85 34 -36 24 -65 38 -121 61 l-38 15 7 47 c4 26 15 59 25 73 9 14 23 41 29 62 7 20 22 47 35 60 26 26 56 80 56 100 0 7 13 29 29 48 15 19 34 53 41 75 7 22 25 58 41 80 15 22 36 60 45 85 10 25 30 60 46 78 15 18 34 47 42 65 16 39 108 127 133 127 10 0 32 9 50 19 50 31 133 41 339 41 174 0 194 -2 215 -19 20 -16 24 -29 24 -73 0 -29 -4 -366 -9 -748 -9 -803 -22 -718 109 -740 106 -17 118 -16 155 10 l32 23 -4 716 -3 716 23 48 c33 68 118 152 170 168 46 13 142 96 142 121 0 9 -6 21 -14 27 -8 6 -29 41 -47 77 -19 37 -45 89 -60 116 -31 62 -43 69 -95 53z m-3514 -596 c14 -10 42 -28 63 -40 23 -12 44 -33 52 -52 7 -18 25 -43 39 -56 21 -20 26 -34 26 -71 0 -26 -5 -62 -12 -81 -12 -36 -78 -125 -108 -146 -31 -22 -113 -35 -178 -28 -54 6 -69 12 -110 47 -67 57 -86 98 -86 183 0 39 6 86 13 105 15 37 49 80 63 80 5 0 38 20 74 44 56 39 70 44 102 39 20 -3 48 -14 62 -24z"></path><path id="p142JDrLhb" d="M10275 8894 c-11 -1 -85 -8 -164 -15 -126 -11 -152 -16 -199 -41 -30 -15 -64 -28 -76 -28 -40 0 -119 -32 -166 -68 -32 -24 -150 -140 -150 -147 0 -1 -11 -54 -25 -119 -29 -136 -31 -188 -11 -283 8 -37 18 -96 22 -131 4 -42 15 -76 34 -105 15 -23 38 -71 51 -105 26 -69 38 -80 90 -83 40 -3 125 36 140 62 11 22 -2 81 -32 138 -38 73 -47 256 -17 336 29 76 144 175 205 175 10 0 42 11 72 25 72 34 206 45 541 45 292 0 397 -12 515 -55 123 -45 130 -51 170 -138 26 -57 39 -101 46 -165 20 -180 40 -209 135 -199 114 12 135 49 123 217 -9 121 -5 190 13 227 7 14 42 35 97 59 74 32 99 38 182 42 52 2 131 0 175 -6 89 -13 248 -62 268 -83 8 -8 20 -34 28 -59 14 -42 14 -58 -3 -175 -15 -103 -26 -144 -53 -200 -61 -127 -78 -181 -71 -225 6 -36 11 -42 63 -66 31 -14 66 -35 77 -45 27 -24 97 -35 112 -17 6 7 21 45 33 83 13 39 32 82 42 98 11 15 26 64 33 112 8 46 23 129 35 183 34 160 22 294 -43 475 -5 15 -39 58 -76 96 -57 59 -77 72 -141 96 -41 15 -85 33 -96 41 -42 26 -151 36 -352 32 -197 -3 -199 -3 -238 -30 -21 -15 -62 -35 -91 -46 -30 -12 -64 -34 -83 -56 -23 -26 -40 -36 -62 -36 -34 0 -84 24 -116 55 -12 12 -44 28 -70 35 -26 7 -68 23 -93 36 -59 29 -135 41 -334 54 -143 9 -488 12 -540 4z"></path><path id="p18eDfTGKj" d="M14185 8890 c-87 -11 -100 -25 -109 -117 -4 -37 -12 -94 -18 -126 -10 -53 -9 -60 9 -78 18 -18 37 -20 314 -22 358 -4 392 -12 419 -93 10 -29 8 -37 -14 -71 -14 -21 -32 -68 -42 -106 -9 -39 -28 -82 -45 -103 -18 -23 -34 -61 -44 -110 -10 -40 -25 -84 -35 -96 -9 -13 -31 -66 -47 -118 -29 -89 -30 -97 -17 -141 14 -46 14 -46 86 -68 40 -13 86 -32 102 -43 38 -27 55 -16 77 49 9 27 28 61 41 75 18 17 29 44 36 87 6 35 26 95 43 135 17 39 35 80 39 91 4 11 17 45 30 75 12 30 38 98 57 150 19 52 40 101 47 110 8 8 21 29 29 46 9 18 45 51 79 75 58 40 69 44 136 47 104 6 220 -13 290 -48 70 -36 83 -49 107 -115 9 -27 24 -60 31 -72 8 -13 19 -67 24 -121 6 -55 16 -119 23 -143 13 -44 14 -44 58 -43 98 1 137 13 158 48 19 29 20 47 18 202 -2 208 -3 207 115 254 77 32 91 34 198 35 142 0 213 -16 276 -64 37 -28 50 -45 57 -76 5 -22 6 -152 3 -290 -3 -137 -7 -441 -7 -675 l-1 -425 24 -18 c14 -10 63 -24 118 -32 l95 -15 21 26 22 26 -5 722 c-2 396 -9 745 -14 775 -14 87 -65 178 -136 249 -35 34 -72 62 -82 62 -11 0 -50 17 -88 37 l-68 37 -200 1 -200 0 -50 -32 c-28 -17 -69 -36 -92 -42 -29 -8 -51 -23 -73 -51 l-31 -39 -49 18 c-26 10 -58 28 -70 39 -13 12 -35 24 -50 27 -15 3 -49 19 -74 35 -58 37 -134 50 -297 50 -129 0 -228 -12 -239 -30 -3 -5 -35 -24 -70 -41 -62 -30 -67 -31 -120 -19 -30 6 -81 27 -113 47 -39 23 -78 38 -120 44 -91 13 -481 19 -562 9z"></path><path id="pGQR0sxik" d="M8352 8868 c-6 -9 -12 -264 -16 -713 -3 -385 -9 -802 -12 -927 l-6 -226 25 -17 c14 -9 67 -22 117 -30 96 -14 116 -11 136 24 6 10 7 373 2 946 -8 853 -10 931 -25 943 -11 7 -52 12 -114 12 -65 0 -100 -4 -107 -12z"></path><path id="pM1guRHm1" d="M17402 8868 c-12 -6 -25 -21 -28 -33 -3 -12 -10 -309 -15 -661 -6 -351 -13 -757 -15 -901 l-5 -262 23 -15 c13 -8 46 -20 73 -26 129 -31 155 -41 155 -61 0 -10 5 -19 10 -19 6 0 10 8 10 19 0 10 7 32 15 47 13 25 15 153 15 954 0 822 -2 928 -16 948 -14 20 -23 22 -107 21 -51 0 -102 -5 -115 -11z"></path><path id="pUtHO5zNd" d="M5653 7703 c-94 -95 -116 -95 -201 -1 -47 52 -60 57 -110 44 -33 -8 -60 -28 -111 -80 l-68 -68 13 -45 c9 -31 31 -62 74 -104 57 -56 63 -59 109 -59 45 0 51 3 71 35 12 20 44 46 77 64 l56 31 21 -23 c12 -12 48 -45 80 -74 l58 -52 41 20 c58 30 140 116 154 164 13 40 12 40 -30 82 -23 23 -49 49 -57 58 -8 9 -35 30 -60 49 l-45 32 -72 -73z"></path><path id="pIU578LwW" d="M15668 7688 l-96 -93 15 -35 c16 -39 88 -117 147 -161 35 -26 40 -27 65 -15 14 8 35 24 46 36 11 12 37 36 58 52 l37 30 52 -19 c34 -12 61 -31 81 -55 28 -35 34 -38 83 -38 49 0 54 2 73 34 12 19 33 41 46 50 14 9 36 40 49 69 l24 51 -66 74 c-36 40 -73 77 -81 81 -29 15 -100 -12 -144 -55 -74 -72 -130 -77 -162 -14 -9 17 -19 30 -24 30 -5 0 -26 16 -47 35 -21 19 -43 35 -49 35 -6 0 -54 -42 -107 -92z"></path><path id="priJpXFJQ" d="M4252 7334 c-29 -30 -66 -77 -83 -105 l-29 -50 86 -86 86 -85 43 23 c24 13 71 50 105 82 62 57 63 58 57 102 -4 39 -13 54 -63 104 -49 48 -67 59 -104 64 -44 6 -46 6 -98 -49z"></path><path id="pDVDvbWGk" d="M5501 7306 c-19 -7 -44 -27 -57 -45 -12 -18 -36 -42 -53 -52 -28 -17 -31 -24 -31 -68 0 -42 4 -53 28 -71 15 -12 38 -37 52 -57 17 -24 41 -42 74 -54 l49 -18 79 76 c75 73 78 78 78 122 0 44 -3 48 -72 113 -76 70 -89 75 -147 54z"></path></g></g></svg>